<?xml version="1.0" encoding="UTF-8"?>
<svg width="183px" height="48px" viewBox="0 0 200 48" version="1.1" xmlns="http://www.w3.org/2000/svg" xmlns:xlink="http://www.w3.org/1999/xlink">
    <!-- Generator: Sketch 57.1 (83088) - https://sketch.com -->
    <title>Aareon_logo_inverted</title>
    <desc>Created with Sketch.</desc>
    <g id="Aareon_logo_inverted" stroke="none" stroke-width="1" fill="none" fill-rule="evenodd">
        <g id="Aareon_logo">
            <g id="Group" transform="translate(65.000000, 9.000000)" fill="#FFFFFF">
                <path d="M16.086,11.87 L16.088,2.833 L8.319,2.833 C5.193,2.833 3.998,4.952 3.932,7.868 L3.932,11.87 L16.086,11.87 Z M0.174,7.774 C0.174,3.2 3.277,0.202 8.359,0.202 L19.812,0.208 L19.812,21.034 L16.088,21.034 L16.088,14.339 L3.933,14.339 L3.933,21.034 L0.174,21.034 L0.174,7.774 Z" id="Shape" fill-rule="nonzero"></path>
                <path d="M126.841,5.413 C131.879,5.413 134.968,8.472 135,12.97 L135,21.034 L131.251,21.034 L131.252,12.97 C131.164,10.111 129.963,7.991 126.88,7.991 L120.021,7.991 L120.021,21.034 L116.162,21.034 L116.162,7.991 L113.174,7.991 L113.174,5.413 L126.841,5.413 Z" id="Path" fill-rule="nonzero"></path>
                <path d="M32.984,21.034 C28.815,21.034 25.196,18.546 25.196,13.03 C25.196,8.475 28.298,5.413 33.381,5.413 L42.954,5.417 L42.954,18.513 L45.892,18.513 L45.892,21.034 L32.984,21.034 Z M39.215,18.444 L39.215,8.005 L33.344,8.005 C30.143,8.005 28.964,10.237 28.9519262,13.263 C28.94,16.486 30.39,18.445 33.637,18.445 L39.215,18.445 L39.215,18.444 Z" id="Shape" fill-rule="nonzero"></path>
                <path d="M93.918,12.636 L93.918,13.294 C93.918,16.868 95.431,18.444 99.488,18.444 L100.286,18.444 L101.079,18.444 C105.136,18.444 106.648,16.868 106.648,13.294 L106.648,12.636 C106.648,8.669 104.696,7.48599937 101.082,7.48599937 L100.281,7.48599937 L99.484,7.48599937 C95.87,7.485 93.918,8.669 93.918,12.636 L93.918,12.636 Z M100.219,21.034 L98.887,21.034 C93.498,21.034 90.017,18.802 90.017,13.112 L90.022,12.788 C90.059,7.194 93.522,4.895 98.887,4.895 L100.215,4.895 L101.547,4.895 C106.913,4.895 110.375,7.194 110.413,12.788 L110.416,13.112 C110.416,18.801 106.937,21.034 101.547,21.034 L100.219,21.034 Z" id="Shape" fill-rule="nonzero"></path>
                <path d="M75.938,7.97 C71.48,7.97 71.052,10.697 70.868,11.833 L76.598,11.831 L82.334,11.835 C82.15,10.698 81.722,7.972 77.265,7.972 L76.601,7.976 L75.938,7.97 Z M70.868,14.321 C71.155,16.911 72.616,18.509 75.482,18.509 L82.342,18.509 L82.342,21.034 L74.83,21.034 C70.676,21.034 67.07,18.536 67.07,13.04 C67.07,8.571 69.988,5.411 75.815,5.411 L77.379,5.411 C82.849,5.411 84.974,7.948 85.651,11.768 C85.822,12.737 85.777,14.321 85.777,14.321 L70.868,14.321 Z" id="Shape"></path>
                <path d="M64.861,5.536 L58.67,5.53 C53.633,5.53 50.547,8.487 50.514,12.985 L50.514,21.034 L54.262,21.034 L54.262,13.036 C54.35,10.177 55.549,8.11 58.631,8.11 L64.861,8.11 L64.861,5.536 L64.861,5.536 Z" id="Path" fill-rule="nonzero"></path>
            </g>
            <path d="M46.557,20.698 C46.73,21.846 46.821,23.02 46.821,24.216 C46.821,34.136 40.648,42.616 31.936,46.025 L46.557,20.698 Z" id="Path" fill="#FFFFFF" fill-rule="nonzero"></path>
            <path d="M10.663,17.569 C10.663,17.569 9.129,17.481 7.314,17.805 C6.662,17.922 6.166,18.076 5.543,18.336 C3.51,19.18 2.396,21.145 2.396,21.145 L1.317,23.014 L0.024,25.262 C0.008,24.915 0,24.567 0,24.216 C0,11.286 10.481,0.806 23.41,0.806 C34.026,0.806 42.993,7.874 45.861,17.562 L42.224,17.562 C42.224,17.562 40.69,17.472 38.875,17.798 C38.222,17.915 37.727,18.071 37.104,18.329 C35.071,19.173 33.957,21.138 33.957,21.138 L32.878,23.007 L18.914,47.194 C17.899,46.997 16.91,46.733 15.947,46.411 L33.894,15.325 C33.298,15.741 32.617,16.007 32.026,16.007 C30.958,16.007 30.59,15.14 31.208,14.071 C31.825,13.001 33.192,12.133 34.262,12.133 C34.853,12.133 35.229,12.399 35.342,12.817 L37.354,9.335 L31.209,9.335 C31.209,9.335 29.675,9.247 27.86,9.571 C27.207,9.688 26.712,9.842 26.089,10.102 C24.056,10.944 22.942,12.911 22.942,12.911 L21.864,14.78 L6.858,40.77 C6.117,40.028 5.423,39.235 4.786,38.399 L16.812,17.569 C16.812,17.569 10.663,17.569 10.663,17.569 Z" id="Path" fill="#FFFFFF" fill-rule="nonzero"></path>
        </g>
    </g>
</svg>